<svg width="344" height="344" viewBox="0 0 344 344" fill="none" xmlns="http://www.w3.org/2000/svg">
<path d="M253.243 50.6475C259.649 35.9305 276.773 29.1931 291.49 35.5991C306.207 42.0052 312.944 59.1288 306.538 73.8458C300.132 88.5628 283.009 95.3002 268.292 88.8942C253.575 82.4881 246.837 65.3645 253.243 50.6475Z" fill="#FF4B4B"/>
<path d="M268.887 57.4575C271.532 51.3809 278.602 48.5991 284.679 51.2441C290.756 53.8891 293.537 60.9593 290.892 67.0359C288.247 73.1125 281.177 75.8943 275.101 73.2493C269.024 70.6043 266.242 63.534 268.887 57.4575Z" fill="white"/>
<path d="M259.86 100.086L255.605 73.9817L288.503 88.3017L266.499 102.975C264.52 104.294 261.847 103.76 260.528 101.782C260.187 101.27 259.959 100.692 259.86 100.086Z" fill="#FF4B4B"/>
<path d="M220.823 85.8533L10.0978 138.393C7.34004 139.08 5.6618 141.873 6.3494 144.631L39.7157 278.457C40.4033 281.214 43.1964 282.893 45.9542 282.205L256.68 229.665C259.437 228.978 261.116 226.185 260.428 223.427L227.062 89.6017C226.374 86.8439 223.581 85.1657 220.823 85.8533Z" fill="white"/>
<path d="M82.4834 154.29C86.0686 153.396 89.6996 155.578 90.5935 159.163L92.212 165.655C92.7621 167.861 91.4195 170.096 89.2132 170.646L84.2198 171.891C82.0135 172.441 79.779 171.098 79.229 168.892L77.6104 162.4C76.7166 158.815 78.8983 155.184 82.4834 154.29Z" fill="#A66640"/>
<path fill-rule="evenodd" clip-rule="evenodd" d="M96.4609 152.926L157.88 137.613C162.569 136.444 167.317 139.297 168.486 143.985C169.655 148.673 166.802 153.421 162.114 154.59L108.683 167.912C104.271 169.012 99.8021 166.327 98.702 161.914L96.4609 152.926Z" stroke="#D8D8D8" stroke-width="2.05854"/>
<path d="M110.844 155.3L112.279 161.056C112.416 161.608 112.081 162.166 111.529 162.304C111.374 162.343 111.212 162.345 111.056 162.31L106.591 161.315C105.482 161.067 104.783 159.967 105.03 158.858C105.127 158.423 105.362 158.031 105.7 157.742L109.175 154.767C109.607 154.397 110.257 154.448 110.627 154.88C110.731 155.001 110.805 155.145 110.844 155.3Z" fill="#47D7FF"/>
<path d="M116.571 178.27L118.006 184.026C118.143 184.578 117.808 185.137 117.256 185.274C117.101 185.313 116.939 185.315 116.783 185.28L112.318 184.285C111.209 184.037 110.51 182.937 110.757 181.828C110.854 181.393 111.089 181.001 111.428 180.712L114.903 177.737C115.334 177.367 115.984 177.418 116.354 177.85C116.458 177.971 116.532 178.115 116.571 178.27Z" fill="#47D7FF"/>
<path fill-rule="evenodd" clip-rule="evenodd" d="M102.191 175.896L145.634 165.065C150.322 163.896 155.071 166.749 156.239 171.437C157.408 176.125 154.555 180.874 149.867 182.042L114.413 190.882C110.001 191.982 105.532 189.297 104.432 184.884L102.191 175.896Z" stroke="#D8D8D8" stroke-width="2.05854"/>
<path d="M176.076 187.177L92.1853 208.093C90.5306 208.505 89.5236 210.181 89.9362 211.836L91.1812 216.829C91.5938 218.484 93.2696 219.491 94.9243 219.078L178.815 198.162C180.469 197.75 181.476 196.074 181.064 194.419L179.819 189.426C179.406 187.771 177.73 186.764 176.076 187.177Z" fill="#BBF2FF" stroke="#47D7FF" stroke-width="2.05854"/>
<path d="M179.81 202.157L95.9196 223.073C94.2649 223.486 93.258 225.162 93.6706 226.816L94.9156 231.81C95.3281 233.464 97.004 234.471 98.6587 234.059L182.549 213.143C184.204 212.73 185.211 211.054 184.799 209.4L183.554 204.406C183.141 202.751 181.465 201.744 179.81 202.157Z" stroke="#D8D8D8" stroke-width="2.05854"/>
<path d="M183.545 217.137L99.654 238.054C97.9994 238.466 96.9924 240.142 97.405 241.797L98.65 246.79C99.0625 248.445 100.738 249.452 102.393 249.039L186.284 228.123C187.938 227.711 188.945 226.035 188.533 224.38L187.288 219.386C186.875 217.732 185.199 216.725 183.545 217.137Z" stroke="#D8D8D8" stroke-width="2.05854"/>
<path d="M86.7112 177.634L92.7033 176.14C93.8065 175.865 94.9237 176.536 95.1987 177.639L96.8172 184.131C97.0235 184.958 96.5201 185.796 95.6927 186.002L85.7057 188.492C84.8784 188.699 84.0405 188.195 83.8342 187.368L82.9627 183.872C82.2751 181.115 83.9533 178.321 86.7112 177.634Z" fill="#FFCE8E"/>
<path d="M85.4626 181.128L92.4535 179.385C94.1082 178.972 95.784 179.979 96.1966 181.634L97.3171 186.128C98.211 189.713 96.0293 193.344 92.4441 194.238C88.8589 195.132 85.2279 192.95 84.3341 189.365L83.2136 184.871C82.801 183.216 83.8079 181.541 85.4626 181.128Z" fill="#E79B7E"/>
<path d="M97.4416 184.506L83.4599 187.992C82.6325 188.198 82.129 189.036 82.3353 189.863C82.5416 190.691 83.3795 191.194 84.2069 190.988L98.1886 187.502C99.016 187.295 99.5195 186.457 99.3132 185.63C99.1069 184.803 98.269 184.299 97.4416 184.506Z" fill="#E79B7E"/>
<path d="M91.715 161.536L77.7333 165.022C76.9059 165.228 76.4024 166.066 76.6087 166.893C76.815 167.721 77.6529 168.224 78.4803 168.018L92.462 164.532C93.2894 164.325 93.7928 163.487 93.5866 162.66C93.3803 161.833 92.5424 161.329 91.715 161.536Z" fill="#A66640"/>
<path d="M84.6018 160.657C84.258 159.278 82.8614 158.439 81.4825 158.783C80.1036 159.127 79.2645 160.523 79.6083 161.902C79.9521 163.281 81.3486 164.12 82.7275 163.777C84.1064 163.433 84.9456 162.036 84.6018 160.657Z" fill="white"/>
<path d="M88.5939 159.661C88.2501 158.282 86.8536 157.443 85.4747 157.787C84.0958 158.131 83.2567 159.527 83.6005 160.906C83.9443 162.285 85.3408 163.124 86.7197 162.781C88.0986 162.437 88.9377 161.04 88.5939 159.661Z" fill="white"/>
<path d="M86.4735 159.66C86.336 159.108 85.7774 158.773 85.2258 158.91C84.6742 159.048 84.3386 159.606 84.4761 160.158C84.6136 160.71 85.1722 161.045 85.7238 160.908C86.2754 160.77 86.611 160.212 86.4735 159.66Z" fill="#777777"/>
<path d="M82.4774 160.656C82.3399 160.104 81.7812 159.769 81.2297 159.906C80.6781 160.044 80.3425 160.602 80.48 161.154C80.6175 161.706 81.1761 162.041 81.7277 161.904C82.2793 161.766 82.6149 161.208 82.4774 160.656Z" fill="#777777"/>
<path d="M220.573 84.8545L9.84786 137.394C7.09004 138.082 5.41179 140.875 6.0994 143.633L39.9638 279.455C40.6514 282.213 43.4445 283.891 46.2023 283.204L256.928 230.664C259.685 229.976 261.364 227.183 260.676 224.426L226.812 88.6029C226.124 85.8451 223.331 84.1669 220.573 84.8545Z" stroke="#777777" stroke-width="10.2927"/>
<path d="M37.6758 146.898L199.7 106.501" stroke="#D8D8D8" stroke-width="5.14635" stroke-linecap="round"/>
<path d="M37.6758 146.898L169.739 113.971" stroke="#58CC02" stroke-width="5.14635" stroke-linecap="round"/>
<path d="M88.25 188.389C90.0393 189.189 92.1434 188.664 93.3477 187.118" stroke="white" stroke-width="3.08781" stroke-linecap="round"/>
<path d="M82.5234 165.419C83.3876 166.699 85.1256 167.035 86.4053 166.171C87.0894 165.709 87.5344 164.969 87.6211 164.148" stroke="#774426" stroke-width="1.02927" stroke-linecap="round"/>
<path d="M86.5045 185.642C86.4809 184.738 87.1941 183.987 88.0976 183.963C88.7333 183.946 89.321 184.3 89.6048 184.869" stroke="#BB6C4E" stroke-width="1.02927" stroke-linecap="round"/>
<path d="M90.4967 184.646C90.4731 183.742 91.1864 182.991 92.0898 182.967C92.7255 182.95 93.3133 183.304 93.597 183.873" stroke="#BB6C4E" stroke-width="1.02927" stroke-linecap="round"/>
<path d="M335.716 161.108L271.661 128.884C268.743 127.416 265.188 128.591 263.72 131.509L202.593 253.016C201.125 255.934 202.3 259.489 205.218 260.957L269.273 293.182C272.191 294.649 275.746 293.474 277.214 290.556L338.341 169.049C339.809 166.131 338.634 162.576 335.716 161.108Z" fill="white"/>
<mask id="mask0_320_947" style="mask-type:alpha" maskUnits="userSpaceOnUse" x="201" y="128" width="138" height="166">
<path d="M335.716 161.109L271.661 128.884C268.743 127.416 265.188 128.591 263.72 131.509L202.593 253.016C201.125 255.934 202.3 259.489 205.218 260.957L269.273 293.182C272.191 294.65 275.746 293.474 277.214 290.556L338.341 169.049C339.809 166.131 338.634 162.576 335.716 161.109Z" fill="white"/>
</mask>
<g mask="url(#mask0_320_947)">
<path d="M317.606 186.838L309.983 183.003C308.888 182.453 307.555 182.894 307.005 183.988L305.89 186.205C305.339 187.299 305.78 188.632 306.874 189.182L314.497 193.017C315.591 193.568 316.925 193.127 317.475 192.033L318.59 189.816C319.141 188.722 318.7 187.389 317.606 186.838Z" fill="#2B70C9"/>
</g>
<mask id="mask1_320_947" style="mask-type:alpha" maskUnits="userSpaceOnUse" x="201" y="128" width="138" height="166">
<path d="M335.716 161.109L271.661 128.884C268.743 127.416 265.188 128.591 263.72 131.509L202.593 253.016C201.125 255.934 202.3 259.489 205.218 260.957L269.273 293.182C272.191 294.65 275.746 293.474 277.214 290.556L338.341 169.049C339.809 166.131 338.634 162.576 335.716 161.109Z" fill="white"/>
</mask>
<g mask="url(#mask1_320_947)">
<path d="M291.494 196.373C294.521 190.355 292.097 183.023 286.079 179.996C280.062 176.968 272.729 179.392 269.702 185.41C266.674 191.428 269.099 198.76 275.116 201.788C281.134 204.815 288.466 202.391 291.494 196.373Z" fill="#FFD900"/>
</g>
<mask id="mask2_320_947" style="mask-type:alpha" maskUnits="userSpaceOnUse" x="201" y="128" width="138" height="166">
<path d="M335.716 161.109L271.661 128.884C268.743 127.416 265.188 128.591 263.72 131.509L202.593 253.016C201.125 255.934 202.3 259.489 205.218 260.957L269.273 293.182C272.191 294.65 275.746 293.474 277.214 290.556L338.341 169.049C339.809 166.131 338.634 162.576 335.716 161.109Z" fill="white"/>
</mask>
<g mask="url(#mask2_320_947)">
<path d="M264.92 249.202C267.947 243.185 265.523 235.852 259.505 232.825C253.487 229.797 246.155 232.222 243.128 238.239C240.1 244.257 242.524 251.589 248.542 254.617C254.56 257.644 261.892 255.22 264.92 249.202Z" fill="#DEDEDE"/>
</g>
<mask id="mask3_320_947" style="mask-type:alpha" maskUnits="userSpaceOnUse" x="201" y="128" width="138" height="166">
<path d="M335.716 161.109L271.661 128.884C268.743 127.416 265.188 128.591 263.72 131.509L202.593 253.016C201.125 255.934 202.3 259.489 205.218 260.957L269.273 293.182C272.191 294.65 275.746 293.474 277.214 290.556L338.341 169.049C339.809 166.131 338.634 162.576 335.716 161.109Z" fill="white"/>
</mask>
<g mask="url(#mask3_320_947)">
<path d="M282.09 279.222L208.789 242.346C207.695 241.796 206.362 242.237 205.811 243.331L198.835 257.198C198.285 258.293 198.725 259.626 199.819 260.176L273.12 297.052C274.214 297.602 275.547 297.162 276.098 296.067L283.074 282.2C283.625 281.106 283.184 279.772 282.09 279.222Z" fill="white" stroke="#DEDEDE" stroke-width="2.21766"/>
</g>
<mask id="mask4_320_947" style="mask-type:alpha" maskUnits="userSpaceOnUse" x="201" y="128" width="138" height="166">
<path d="M335.716 161.109L271.661 128.884C268.743 127.416 265.188 128.591 263.72 131.509L202.593 253.016C201.125 255.934 202.3 259.489 205.218 260.957L269.273 293.182C272.191 294.65 275.746 293.474 277.214 290.556L338.341 169.049C339.809 166.131 338.634 162.576 335.716 161.109Z" fill="white"/>
</mask>
<g mask="url(#mask4_320_947)">
<path d="M341.001 162.113L267.701 125.238C266.606 124.687 265.273 125.128 264.723 126.222L254.424 146.693C253.874 147.788 254.314 149.121 255.409 149.671L328.709 186.547C329.803 187.097 331.137 186.656 331.687 185.562L341.986 165.091C342.536 163.997 342.095 162.664 341.001 162.113Z" fill="white" stroke="#DEDEDE" stroke-width="2.21766"/>
</g>
<mask id="mask5_320_947" style="mask-type:alpha" maskUnits="userSpaceOnUse" x="201" y="128" width="138" height="166">
<path d="M335.716 161.109L271.661 128.884C268.743 127.416 265.188 128.591 263.72 131.509L202.593 253.016C201.125 255.934 202.3 259.489 205.218 260.957L269.273 293.182C272.191 294.65 275.746 293.474 277.214 290.556L338.341 169.049C339.809 166.131 338.634 162.576 335.716 161.109Z" fill="white"/>
</mask>
<g mask="url(#mask5_320_947)">
<path d="M263.678 215.479C266.705 209.461 264.281 202.129 258.263 199.101C252.246 196.074 244.913 198.498 241.886 204.516C238.859 210.534 241.283 217.866 247.3 220.894C253.318 223.921 260.651 221.497 263.678 215.479Z" fill="#FF4B4B"/>
</g>
<mask id="mask6_320_947" style="mask-type:alpha" maskUnits="userSpaceOnUse" x="201" y="128" width="138" height="166">
<path d="M335.716 161.109L271.661 128.884C268.743 127.416 265.188 128.591 263.72 131.509L202.593 253.016C201.125 255.934 202.3 259.489 205.218 260.957L269.273 293.182C272.191 294.65 275.746 293.474 277.214 290.556L338.341 169.049C339.809 166.131 338.634 162.576 335.716 161.109Z" fill="white"/>
</mask>
<g mask="url(#mask6_320_947)">
<path d="M292.736 230.096C295.763 224.079 293.339 216.746 287.322 213.719C281.304 210.692 273.971 213.116 270.944 219.133C267.917 225.151 270.341 232.484 276.359 235.511C282.376 238.538 289.709 236.114 292.736 230.096Z" fill="#1CB0F6"/>
</g>
<mask id="mask7_320_947" style="mask-type:alpha" maskUnits="userSpaceOnUse" x="201" y="128" width="138" height="166">
<path d="M335.716 161.109L271.661 128.884C268.743 127.416 265.188 128.591 263.72 131.509L202.593 253.016C201.125 255.934 202.3 259.489 205.218 260.957L269.273 293.182C272.191 294.65 275.746 293.474 277.214 290.556L338.341 169.049C339.809 166.131 338.634 162.576 335.716 161.109Z" fill="white"/>
</mask>
<g mask="url(#mask7_320_947)">
<path d="M318.546 152.471L288.829 137.521C287.735 136.971 286.402 137.412 285.852 138.506L283.526 143.128C282.976 144.222 283.417 145.556 284.511 146.106L314.227 161.056C315.321 161.606 316.654 161.165 317.205 160.071L319.53 155.449C320.081 154.355 319.64 153.021 318.546 152.471Z" fill="#777777"/>
</g>
<path d="M335.716 161.108L271.661 128.884C268.743 127.416 265.188 128.591 263.72 131.509L202.593 253.016C201.125 255.934 202.3 259.489 205.218 260.957L269.273 293.182C272.191 294.649 275.746 293.474 277.214 290.556L338.341 169.049C339.809 166.131 338.634 162.576 335.716 161.108Z" stroke="#777777" stroke-width="7.39222"/>
<path d="M279.227 145.101L269.982 140.45C268.888 139.9 267.555 140.341 267.004 141.435L264.347 146.718C263.796 147.812 264.237 149.145 265.331 149.696L274.576 154.346C275.67 154.897 277.004 154.456 277.554 153.362L280.212 148.079C280.762 146.985 280.321 145.652 279.227 145.101Z" fill="#DEDEDE"/>
<path d="M296.052 159.358C296.786 157.899 296.198 156.122 294.739 155.388C293.28 154.654 291.503 155.242 290.769 156.7C290.035 158.159 290.623 159.937 292.081 160.671C293.54 161.405 295.318 160.817 296.052 159.358Z" fill="#FFD900"/>
<path d="M274.919 148.727C275.653 147.268 275.065 145.491 273.606 144.757C272.147 144.023 270.37 144.611 269.636 146.07C268.902 147.528 269.49 149.306 270.948 150.04C272.407 150.774 274.185 150.186 274.919 148.727Z" fill="#FF4B4B"/>
<path d="M309.259 166.002C309.993 164.544 309.405 162.766 307.946 162.032C306.487 161.298 304.71 161.886 303.976 163.345C303.242 164.803 303.83 166.581 305.288 167.315C306.747 168.049 308.525 167.461 309.259 166.002Z" fill="#FF9600"/>
<path d="M322.466 172.647C323.2 171.188 322.613 169.41 321.154 168.676C319.695 167.942 317.917 168.53 317.183 169.989C316.449 171.448 317.037 173.225 318.496 173.959C319.955 174.693 321.732 174.105 322.466 172.647Z" fill="#1CB0F6"/>
<path d="M48.5615 49.4257C49.0314 49.7203 49.3996 50.152 49.6163 50.6625L68.5667 95.3069C69.1513 96.684 68.5087 98.2743 67.1316 98.8589C66.6211 99.0756 66.0564 99.1304 65.5137 99.0158L44.4215 94.5639L40.3995 96.2711C37.0578 97.6896 33.199 96.1306 31.7805 92.7888L25.9852 79.1359C24.5667 75.7942 26.1258 71.9353 29.4675 70.5169L33.1136 68.9692L44.8275 50.2822C45.6221 49.0145 47.2939 48.6311 48.5615 49.4257ZM67.7572 40.7541C78.739 41.3913 88.4785 48.0445 92.7982 58.2209C97.1296 68.4252 95.1265 80.0873 87.9119 88.4321C86.7248 89.8052 84.6493 89.956 83.2761 88.7688C81.903 87.5817 81.7523 85.5062 82.9394 84.1331C88.5379 77.6575 90.0848 68.6516 86.7475 60.7893C83.4192 52.9484 75.8983 47.8107 67.3765 47.3163C65.5644 47.2112 64.1806 45.657 64.2857 43.8449C64.3909 42.0328 65.9451 40.649 67.7572 40.7541ZM66.0487 55.5756C71.513 55.8926 76.3696 59.2102 78.5256 64.2896C80.6876 69.3828 79.6888 75.198 76.099 79.3502C74.9118 80.7233 72.8363 80.874 71.4632 79.6869C70.0901 78.4998 69.9393 76.4242 71.1265 75.0511C73.1002 72.7682 73.6428 69.6092 72.4749 66.8579C71.3103 64.1142 68.6722 62.3121 65.668 62.1378C63.8559 62.0327 62.4721 60.4784 62.5772 58.6663C62.6824 56.8542 64.2366 55.4704 66.0487 55.5756Z" fill="#1CB0F6"/>
<path d="M128.905 252.502L188.273 269.526C193.737 271.093 196.897 276.793 195.33 282.257L183.272 324.309C181.705 329.774 176.005 332.933 170.54 331.366L111.173 314.343C105.708 312.776 102.549 307.076 104.116 301.611L116.174 259.56C117.741 254.095 123.441 250.935 128.905 252.502Z" fill="#FF4B4B"/>
<mask id="mask8_320_947" style="mask-type:alpha" maskUnits="userSpaceOnUse" x="103" y="271" width="89" height="55">
<path d="M191.772 294.669L183.273 324.309C183.149 324.743 182.998 325.162 182.824 325.566L103.832 302.915C103.898 302.481 103.993 302.045 104.117 301.611L112.616 271.971L191.772 294.669Z" fill="white"/>
</mask>
<g mask="url(#mask8_320_947)">
<path d="M191.772 294.669L183.273 324.309C183.149 324.743 182.998 325.162 182.824 325.566L103.832 302.915C103.898 302.481 103.992 302.045 104.117 301.611L112.616 271.971L191.772 294.669Z" fill="#FAF3F3"/>
</g>
<path d="M123.508 293.448C125.063 301.135 129.859 300.838 137.896 292.558C146.027 284.182 148.179 299.75 152.277 304.989C154.984 308.449 160.013 312.861 171.963 307.342" stroke="#E7DBDB" stroke-width="5.14663" stroke-linecap="round"/>
<path d="M138.73 268.366L170.021 277.339" stroke="white" stroke-width="5.14663" stroke-linecap="round"/>
</svg>
