<svg width="52" height="53" viewBox="0 0 52 53" fill="none" xmlns="http://www.w3.org/2000/svg">
<path d="M25.5389 26.4166C29.4393 26.4166 32.6012 23.1371 32.6012 19.0916C32.6012 15.0461 29.4393 11.7666 25.5389 11.7666C21.6385 11.7666 18.4766 15.0461 18.4766 19.0916C18.4766 23.1371 21.6385 26.4166 25.5389 26.4166Z" stroke="#474747" stroke-width="4"/>
<path d="M39.5923 45.9498C39.2178 38.8897 37.1337 33.7415 25.5402 33.7415C13.947 33.7415 11.8629 38.8897 11.4883 45.9498" stroke="#474747" stroke-width="4" stroke-linecap="round"/>
<path d="M13.7705 5.26651C17.2331 3.18902 21.2533 2 25.541 2C38.5422 2 49.082 12.9317 49.082 26.4166C49.082 39.9014 38.5422 50.8333 25.541 50.8333C12.5397 50.8333 2 39.9014 2 26.4166C2 21.9694 3.14638 17.7997 5.14936 14.2083" stroke="#474747" stroke-width="4" stroke-linecap="round"/>
</svg>
